<svg width="24" height="34" viewBox="0 0 24 34" fill="none" xmlns="http://www.w3.org/2000/svg"><path fill-rule="evenodd" clip-rule="evenodd" d="M23.486 9.298c.014 1.722-.48 3.402-1.404 4.781-.97 1.982-4.112 3.57-4.112 3.57-1.187.536-2.46.8-3.74.776H6.565v3.52h16.698v2.7H6.566v6.997l3.413.327v2.03H.661v-2.03l3.413-.327v-7.11L.5 24.555V21.97l3.574-.063V2.41L.66 2.082V.028h12.668c2.68-.196 5.34.645 7.529 2.381 1.8 1.707 2.773 4.26 2.628 6.889zm-4.419-5.095c-1.663-1.333-3.695-1.97-5.738-1.798H6.566V16.04h6.47c2.75 0 4.76-.615 6.031-1.845 1.273-1.235 1.974-3.047 1.906-4.927.097-1.925-.606-3.794-1.906-5.066z" fill="#fff"/></svg>
