<svg width="51" height="106" viewBox="0 0 51 106" fill="none" xmlns="http://www.w3.org/2000/svg"><path d="M29.406 27.125c6.068 0 10.782 1.563 14.14 4.688 3.386 3.125 5.079 7.24 5.079 12.343 0 5.157-1.693 9.284-5.078 12.383-3.36 3.099-8.073 4.648-14.14 4.648H17.335v16.797l6.367 1.094V84H3.273v-4.922l6.368-1.094V33.18l-6.368-1.094v-4.961H29.406zm-12.07 28.047h12.07c3.854 0 6.732-1.029 8.633-3.086 1.927-2.083 2.89-4.7 2.89-7.852 0-3.15-.963-5.78-2.89-7.89-1.901-2.11-4.779-3.164-8.633-3.164h-12.07v21.992z" fill="#fff"/><path fill="#fff" d="M3.5 66h42v4.5h-42z"/></svg>
